<mxfile host="app.diagrams.net" agent="Mozilla/5.0 (Macintosh; Intel Mac OS X 10_15_7) AppleWebKit/537.36 (KHTML, like Gecko) Chrome/131.0.0.0 Safari/537.36 Edg/131.0.0.0" version="26.0.2">
  <diagram name="第 1 页" id="AuW7D_2Uh3UCpEzqcnnE">
    <mxGraphModel dx="3182" dy="2211" grid="1" gridSize="10" guides="1" tooltips="1" connect="1" arrows="1" fold="1" page="1" pageScale="1" pageWidth="1169" pageHeight="827" math="0" shadow="0">
      <root>
        <mxCell id="0" />
        <mxCell id="1" parent="0" />
        <mxCell id="rIVqcfPACpTOlNHZVLb5-58" value="" style="rounded=0;whiteSpace=wrap;html=1;fillColor=#E2E6EB;strokeColor=none;" parent="1" vertex="1">
          <mxGeometry x="-1133.5" y="-30" width="480" height="230" as="geometry" />
        </mxCell>
        <mxCell id="cpq9sIJFM1b6H--l-Clq-57" value="" style="rounded=0;whiteSpace=wrap;html=1;fillColor=#f5f5f5;fontColor=#333333;strokeColor=none;" vertex="1" parent="1">
          <mxGeometry x="-973.25" y="50" width="238.75" height="80" as="geometry" />
        </mxCell>
        <mxCell id="cpq9sIJFM1b6H--l-Clq-50" value="" style="rounded=0;whiteSpace=wrap;html=1;fillColor=#f5f5f5;fontColor=#333333;strokeColor=none;" vertex="1" parent="1">
          <mxGeometry x="-983.25" y="40" width="238.75" height="80" as="geometry" />
        </mxCell>
        <mxCell id="rIVqcfPACpTOlNHZVLb5-59" value="" style="rounded=0;whiteSpace=wrap;html=1;fillColor=#E2E6EB;strokeColor=none;" parent="1" vertex="1">
          <mxGeometry x="-1132.5" y="-300" width="317.5" height="230" as="geometry" />
        </mxCell>
        <mxCell id="cpq9sIJFM1b6H--l-Clq-29" value="" style="rounded=0;whiteSpace=wrap;html=1;fillColor=#f5f5f5;fontColor=#333333;strokeColor=none;" vertex="1" parent="1">
          <mxGeometry x="-1026.25" y="-170" width="119.25" height="80" as="geometry" />
        </mxCell>
        <mxCell id="cpq9sIJFM1b6H--l-Clq-22" value="" style="rounded=0;whiteSpace=wrap;html=1;fillColor=#f5f5f5;fontColor=#333333;strokeColor=none;" vertex="1" parent="1">
          <mxGeometry x="-1118.75" y="-260" width="282.5" height="40" as="geometry" />
        </mxCell>
        <mxCell id="rIVqcfPACpTOlNHZVLb5-18" value="" style="rounded=0;whiteSpace=wrap;html=1;fillColor=#E1E4E8;strokeColor=none;" parent="1" vertex="1">
          <mxGeometry x="-747.5" y="-550" width="920" height="480" as="geometry" />
        </mxCell>
        <mxCell id="rIVqcfPACpTOlNHZVLb5-1" value="" style="rounded=0;whiteSpace=wrap;html=1;fillColor=#dae8fc;strokeColor=none;" parent="1" vertex="1">
          <mxGeometry x="-187.5" y="-710" width="360" height="120" as="geometry" />
        </mxCell>
        <mxCell id="rIVqcfPACpTOlNHZVLb5-2" value="IDP Platform Team&lt;div&gt;DevOps&lt;/div&gt;" style="rounded=0;whiteSpace=wrap;html=1;" parent="1" vertex="1">
          <mxGeometry x="-187.5" y="-790" width="120" height="40" as="geometry" />
        </mxCell>
        <mxCell id="rIVqcfPACpTOlNHZVLb5-3" value="" style="image;aspect=fixed;html=1;points=[];align=center;fontSize=12;image=img/lib/azure2/devops/Azure_DevOps.svg;" parent="1" vertex="1">
          <mxGeometry x="-147.5" y="-730" width="40" height="40" as="geometry" />
        </mxCell>
        <mxCell id="rIVqcfPACpTOlNHZVLb5-4" style="edgeStyle=orthogonalEdgeStyle;rounded=0;orthogonalLoop=1;jettySize=auto;html=1;entryX=0.488;entryY=0.075;entryDx=0;entryDy=0;entryPerimeter=0;" parent="1" source="rIVqcfPACpTOlNHZVLb5-2" target="rIVqcfPACpTOlNHZVLb5-3" edge="1">
          <mxGeometry relative="1" as="geometry" />
        </mxCell>
        <mxCell id="rIVqcfPACpTOlNHZVLb5-5" value="" style="image;sketch=0;aspect=fixed;html=1;points=[];align=center;fontSize=12;image=img/lib/mscae/Azure_Repos.svg;" parent="1" vertex="1">
          <mxGeometry x="-145.5" y="-680" width="36" height="40" as="geometry" />
        </mxCell>
        <mxCell id="rIVqcfPACpTOlNHZVLb5-6" value="" style="dashed=0;outlineConnect=0;html=1;align=center;labelPosition=center;verticalLabelPosition=bottom;verticalAlign=top;shape=mxgraph.weblogos.github" parent="1" vertex="1">
          <mxGeometry x="-147.5" y="-640" width="40" height="40" as="geometry" />
        </mxCell>
        <mxCell id="rIVqcfPACpTOlNHZVLb5-7" value="&lt;font style=&quot;font-size: 11px;&quot;&gt;- Boards（Project）&lt;/font&gt;&lt;div style=&quot;font-size: 11px;&quot;&gt;&lt;font style=&quot;font-size: 11px;&quot;&gt;- Wiki&lt;/font&gt;&lt;/div&gt;&lt;div style=&quot;font-size: 11px;&quot;&gt;&lt;font style=&quot;font-size: 11px;&quot;&gt;- Pipeline（Actions）&lt;/font&gt;&lt;/div&gt;&lt;div style=&quot;font-size: 11px;&quot;&gt;&lt;font style=&quot;font-size: 11px;&quot;&gt;- Artifacts（Registry）&lt;/font&gt;&lt;/div&gt;" style="text;html=1;align=left;verticalAlign=middle;resizable=0;points=[];autosize=1;strokeColor=none;fillColor=none;" parent="1" vertex="1">
          <mxGeometry x="-87.5" y="-680" width="130" height="70" as="geometry" />
        </mxCell>
        <mxCell id="rIVqcfPACpTOlNHZVLb5-9" value="Role：&amp;nbsp;&lt;span style=&quot;background-color: initial;&quot;&gt;definition（Set，Get）&lt;/span&gt;&lt;div&gt;Policy：assignement，Resource template，&lt;/div&gt;&lt;div&gt;&amp;nbsp;deployment&lt;/div&gt;" style="text;html=1;align=left;verticalAlign=middle;resizable=0;points=[];autosize=1;strokeColor=none;fillColor=none;" parent="1" vertex="1">
          <mxGeometry x="-27.5" y="-790" width="260" height="60" as="geometry" />
        </mxCell>
        <mxCell id="rIVqcfPACpTOlNHZVLb5-10" value="" style="rounded=0;whiteSpace=wrap;html=1;fillColor=#dae8fc;strokeColor=none;" parent="1" vertex="1">
          <mxGeometry x="212.5" y="-570" width="360" height="120" as="geometry" />
        </mxCell>
        <mxCell id="rIVqcfPACpTOlNHZVLb5-11" value="Application Team&lt;br&gt;&lt;div&gt;Development&lt;/div&gt;" style="rounded=0;whiteSpace=wrap;html=1;" parent="1" vertex="1">
          <mxGeometry x="212.5" y="-650" width="120" height="40" as="geometry" />
        </mxCell>
        <mxCell id="rIVqcfPACpTOlNHZVLb5-12" value="" style="image;aspect=fixed;html=1;points=[];align=center;fontSize=12;image=img/lib/azure2/devops/Azure_DevOps.svg;" parent="1" vertex="1">
          <mxGeometry x="252.5" y="-590" width="40" height="40" as="geometry" />
        </mxCell>
        <mxCell id="rIVqcfPACpTOlNHZVLb5-13" style="edgeStyle=orthogonalEdgeStyle;rounded=0;orthogonalLoop=1;jettySize=auto;html=1;entryX=0.488;entryY=0.075;entryDx=0;entryDy=0;entryPerimeter=0;" parent="1" source="rIVqcfPACpTOlNHZVLb5-11" target="rIVqcfPACpTOlNHZVLb5-12" edge="1">
          <mxGeometry relative="1" as="geometry" />
        </mxCell>
        <mxCell id="rIVqcfPACpTOlNHZVLb5-16" value="&lt;font style=&quot;font-size: 11px;&quot;&gt;- Boards（Project）&lt;/font&gt;&lt;div style=&quot;font-size: 11px;&quot;&gt;&lt;font style=&quot;font-size: 11px;&quot;&gt;- Wiki&lt;/font&gt;&lt;/div&gt;&lt;div style=&quot;font-size: 11px;&quot;&gt;&lt;font style=&quot;font-size: 11px;&quot;&gt;- Pipeline（Actions）&lt;/font&gt;&lt;/div&gt;&lt;div style=&quot;font-size: 11px;&quot;&gt;&lt;font style=&quot;font-size: 11px;&quot;&gt;- Artifacts（Registry）&lt;/font&gt;&lt;/div&gt;" style="text;html=1;align=left;verticalAlign=middle;resizable=0;points=[];autosize=1;strokeColor=none;fillColor=none;" parent="1" vertex="1">
          <mxGeometry x="312.5" y="-540" width="130" height="70" as="geometry" />
        </mxCell>
        <mxCell id="rIVqcfPACpTOlNHZVLb5-17" value="" style="verticalLabelPosition=bottom;html=1;verticalAlign=top;align=center;strokeColor=none;fillColor=#00BEF2;shape=mxgraph.azure.git_repository;" parent="1" vertex="1">
          <mxGeometry x="252.5" y="-525" width="40" height="40" as="geometry" />
        </mxCell>
        <mxCell id="rIVqcfPACpTOlNHZVLb5-19" value="Management Subscriptions and OU" style="text;html=1;align=center;verticalAlign=middle;resizable=0;points=[];autosize=1;strokeColor=none;fillColor=none;" parent="1" vertex="1">
          <mxGeometry x="-747.5" y="-580" width="210" height="30" as="geometry" />
        </mxCell>
        <mxCell id="rIVqcfPACpTOlNHZVLb5-20" value="" style="rounded=0;whiteSpace=wrap;html=1;fillColor=#dae8fc;strokeColor=none;" parent="1" vertex="1">
          <mxGeometry x="-347.5" y="-670" width="120" height="80" as="geometry" />
        </mxCell>
        <mxCell id="rIVqcfPACpTOlNHZVLb5-21" value="&lt;font style=&quot;font-size: 9px;&quot;&gt;Microsoft Entra ID&lt;/font&gt;" style="text;html=1;align=center;verticalAlign=middle;resizable=0;points=[];autosize=1;strokeColor=none;fillColor=none;" parent="1" vertex="1">
          <mxGeometry x="-357.5" y="-700" width="100" height="30" as="geometry" />
        </mxCell>
        <mxCell id="rIVqcfPACpTOlNHZVLb5-22" value="" style="rounded=0;whiteSpace=wrap;html=1;fillColor=#dae8fc;strokeColor=none;" parent="1" vertex="1">
          <mxGeometry x="-507.5" y="-670" width="120" height="90" as="geometry" />
        </mxCell>
        <mxCell id="rIVqcfPACpTOlNHZVLb5-23" value="&lt;font style=&quot;font-size: 10px;&quot;&gt;Identity and Access&lt;/font&gt;" style="text;html=1;align=center;verticalAlign=middle;resizable=0;points=[];autosize=1;strokeColor=none;fillColor=none;" parent="1" vertex="1">
          <mxGeometry x="-517.5" y="-700" width="110" height="30" as="geometry" />
        </mxCell>
        <mxCell id="cpq9sIJFM1b6H--l-Clq-96" style="edgeStyle=orthogonalEdgeStyle;rounded=0;orthogonalLoop=1;jettySize=auto;html=1;exitX=0.75;exitY=1;exitDx=0;exitDy=0;entryX=0.25;entryY=1;entryDx=0;entryDy=0;" edge="1" parent="1" source="rIVqcfPACpTOlNHZVLb5-24" target="rIVqcfPACpTOlNHZVLb5-20">
          <mxGeometry relative="1" as="geometry" />
        </mxCell>
        <mxCell id="rIVqcfPACpTOlNHZVLb5-24" value="" style="rounded=0;whiteSpace=wrap;html=1;fillColor=#dae8fc;strokeColor=none;" parent="1" vertex="1">
          <mxGeometry x="-667.5" y="-670" width="120" height="80" as="geometry" />
        </mxCell>
        <mxCell id="rIVqcfPACpTOlNHZVLb5-25" value="&lt;font style=&quot;font-size: 9px;&quot;&gt;&amp;nbsp;Enterprise enrollment&lt;/font&gt;" style="text;html=1;align=center;verticalAlign=middle;resizable=0;points=[];autosize=1;strokeColor=none;fillColor=none;" parent="1" vertex="1">
          <mxGeometry x="-677.5" y="-700" width="110" height="30" as="geometry" />
        </mxCell>
        <mxCell id="cpq9sIJFM1b6H--l-Clq-92" style="edgeStyle=orthogonalEdgeStyle;rounded=0;orthogonalLoop=1;jettySize=auto;html=1;exitX=0.25;exitY=1;exitDx=0;exitDy=0;entryX=0.5;entryY=1;entryDx=0;entryDy=0;" edge="1" parent="1" source="rIVqcfPACpTOlNHZVLb5-26" target="rIVqcfPACpTOlNHZVLb5-59">
          <mxGeometry relative="1" as="geometry">
            <Array as="points">
              <mxPoint x="317" y="-60" />
              <mxPoint x="-974" y="-60" />
            </Array>
          </mxGeometry>
        </mxCell>
        <mxCell id="rIVqcfPACpTOlNHZVLb5-26" value="" style="rounded=0;whiteSpace=wrap;html=1;fillColor=#f5f5f5;fontColor=#333333;strokeColor=none;" parent="1" vertex="1">
          <mxGeometry x="222.5" y="-370" width="177.5" height="290" as="geometry" />
        </mxCell>
        <mxCell id="rIVqcfPACpTOlNHZVLb5-28" value="" style="rounded=1;whiteSpace=wrap;html=1;arcSize=4;fillColor=#bac8d3;strokeColor=#23445D;strokeWidth=2;" parent="1" vertex="1">
          <mxGeometry x="-717.5" y="-520" width="850" height="200" as="geometry" />
        </mxCell>
        <mxCell id="rIVqcfPACpTOlNHZVLb5-27" value="OnPrem" style="text;html=1;align=center;verticalAlign=middle;resizable=0;points=[];autosize=1;strokeColor=none;fillColor=none;" parent="1" vertex="1">
          <mxGeometry x="212.5" y="-400" width="70" height="30" as="geometry" />
        </mxCell>
        <mxCell id="rIVqcfPACpTOlNHZVLb5-29" value="" style="rounded=1;whiteSpace=wrap;html=1;arcSize=3;fillColor=none;strokeColor=#23445d;strokeWidth=2;" parent="1" vertex="1">
          <mxGeometry x="-717.5" y="-300" width="850" height="200" as="geometry" />
        </mxCell>
        <mxCell id="rIVqcfPACpTOlNHZVLb5-30" value="Management group" style="text;html=1;align=center;verticalAlign=middle;resizable=0;points=[];autosize=1;strokeColor=none;fillColor=none;" parent="1" vertex="1">
          <mxGeometry x="-717.5" y="-520" width="130" height="30" as="geometry" />
        </mxCell>
        <mxCell id="rIVqcfPACpTOlNHZVLb5-31" value="Subscriptions" style="text;html=1;align=center;verticalAlign=middle;resizable=0;points=[];autosize=1;strokeColor=none;fillColor=none;" parent="1" vertex="1">
          <mxGeometry x="-717.5" y="-300" width="100" height="30" as="geometry" />
        </mxCell>
        <mxCell id="rIVqcfPACpTOlNHZVLb5-41" style="edgeStyle=orthogonalEdgeStyle;rounded=0;orthogonalLoop=1;jettySize=auto;html=1;entryX=0.5;entryY=0;entryDx=0;entryDy=0;endArrow=oval;endFill=1;" parent="1" source="rIVqcfPACpTOlNHZVLb5-32" target="rIVqcfPACpTOlNHZVLb5-39" edge="1">
          <mxGeometry relative="1" as="geometry" />
        </mxCell>
        <mxCell id="rIVqcfPACpTOlNHZVLb5-52" style="edgeStyle=orthogonalEdgeStyle;rounded=0;orthogonalLoop=1;jettySize=auto;html=1;exitX=0.25;exitY=1;exitDx=0;exitDy=0;endArrow=oval;endFill=1;" parent="1" source="rIVqcfPACpTOlNHZVLb5-32" target="rIVqcfPACpTOlNHZVLb5-37" edge="1">
          <mxGeometry relative="1" as="geometry">
            <Array as="points">
              <mxPoint x="-527.5" y="-400" />
              <mxPoint x="-527.5" y="-270" />
              <mxPoint x="-627.5" y="-270" />
            </Array>
          </mxGeometry>
        </mxCell>
        <mxCell id="rIVqcfPACpTOlNHZVLb5-53" style="edgeStyle=orthogonalEdgeStyle;rounded=0;orthogonalLoop=1;jettySize=auto;html=1;exitX=0.5;exitY=1;exitDx=0;exitDy=0;endArrow=oval;endFill=1;" parent="1" source="rIVqcfPACpTOlNHZVLb5-32" target="rIVqcfPACpTOlNHZVLb5-40" edge="1">
          <mxGeometry relative="1" as="geometry">
            <Array as="points">
              <mxPoint x="-527.5" y="-270" />
              <mxPoint x="-427.5" y="-270" />
            </Array>
          </mxGeometry>
        </mxCell>
        <mxCell id="rIVqcfPACpTOlNHZVLb5-46" style="edgeStyle=orthogonalEdgeStyle;rounded=0;orthogonalLoop=1;jettySize=auto;html=1;exitX=0.25;exitY=1;exitDx=0;exitDy=0;entryX=0;entryY=0.5;entryDx=0;entryDy=0;endArrow=oval;endFill=1;" parent="1" source="rIVqcfPACpTOlNHZVLb5-33" target="rIVqcfPACpTOlNHZVLb5-43" edge="1">
          <mxGeometry relative="1" as="geometry" />
        </mxCell>
        <mxCell id="rIVqcfPACpTOlNHZVLb5-48" style="edgeStyle=orthogonalEdgeStyle;rounded=0;orthogonalLoop=1;jettySize=auto;html=1;exitX=0.25;exitY=1;exitDx=0;exitDy=0;entryX=0;entryY=0.5;entryDx=0;entryDy=0;endArrow=oval;endFill=1;" parent="1" source="rIVqcfPACpTOlNHZVLb5-33" target="rIVqcfPACpTOlNHZVLb5-42" edge="1">
          <mxGeometry relative="1" as="geometry" />
        </mxCell>
        <mxCell id="rIVqcfPACpTOlNHZVLb5-45" style="edgeStyle=orthogonalEdgeStyle;rounded=0;orthogonalLoop=1;jettySize=auto;html=1;entryX=0.5;entryY=0;entryDx=0;entryDy=0;endArrow=oval;endFill=1;" parent="1" source="rIVqcfPACpTOlNHZVLb5-34" target="rIVqcfPACpTOlNHZVLb5-44" edge="1">
          <mxGeometry relative="1" as="geometry" />
        </mxCell>
        <mxCell id="rIVqcfPACpTOlNHZVLb5-49" style="edgeStyle=orthogonalEdgeStyle;rounded=0;orthogonalLoop=1;jettySize=auto;html=1;entryX=0.5;entryY=0;entryDx=0;entryDy=0;endArrow=oval;endFill=1;" parent="1" source="rIVqcfPACpTOlNHZVLb5-35" target="rIVqcfPACpTOlNHZVLb5-34" edge="1">
          <mxGeometry relative="1" as="geometry" />
        </mxCell>
        <mxCell id="rIVqcfPACpTOlNHZVLb5-50" style="edgeStyle=orthogonalEdgeStyle;rounded=0;orthogonalLoop=1;jettySize=auto;html=1;entryX=0.5;entryY=0;entryDx=0;entryDy=0;endArrow=oval;endFill=1;" parent="1" source="rIVqcfPACpTOlNHZVLb5-35" target="rIVqcfPACpTOlNHZVLb5-33" edge="1">
          <mxGeometry relative="1" as="geometry" />
        </mxCell>
        <mxCell id="rIVqcfPACpTOlNHZVLb5-51" style="edgeStyle=orthogonalEdgeStyle;rounded=0;orthogonalLoop=1;jettySize=auto;html=1;endArrow=oval;endFill=1;" parent="1" source="rIVqcfPACpTOlNHZVLb5-35" target="rIVqcfPACpTOlNHZVLb5-32" edge="1">
          <mxGeometry relative="1" as="geometry" />
        </mxCell>
        <mxCell id="rIVqcfPACpTOlNHZVLb5-35" value="Tenant Group" style="rounded=1;whiteSpace=wrap;html=1;" parent="1" vertex="1">
          <mxGeometry x="-367.5" y="-500" width="160" height="40" as="geometry" />
        </mxCell>
        <mxCell id="rIVqcfPACpTOlNHZVLb5-36" style="edgeStyle=orthogonalEdgeStyle;rounded=0;orthogonalLoop=1;jettySize=auto;html=1;endArrow=none;endFill=0;" parent="1" source="rIVqcfPACpTOlNHZVLb5-20" target="rIVqcfPACpTOlNHZVLb5-35" edge="1">
          <mxGeometry relative="1" as="geometry" />
        </mxCell>
        <mxCell id="cpq9sIJFM1b6H--l-Clq-4" style="edgeStyle=orthogonalEdgeStyle;rounded=0;orthogonalLoop=1;jettySize=auto;html=1;entryX=1;entryY=0.5;entryDx=0;entryDy=0;" edge="1" parent="1" source="rIVqcfPACpTOlNHZVLb5-37" target="rIVqcfPACpTOlNHZVLb5-63">
          <mxGeometry relative="1" as="geometry">
            <Array as="points">
              <mxPoint x="-772.5" y="-200" />
              <mxPoint x="-772.5" y="-440" />
            </Array>
          </mxGeometry>
        </mxCell>
        <mxCell id="rIVqcfPACpTOlNHZVLb5-37" value="&amp;nbsp;Management&lt;br&gt;Subscription" style="rounded=0;whiteSpace=wrap;html=1;" parent="1" vertex="1">
          <mxGeometry x="-675.5" y="-230" width="95" height="60" as="geometry" />
        </mxCell>
        <mxCell id="rIVqcfPACpTOlNHZVLb5-40" value="Network&lt;br&gt;Subscription" style="rounded=0;whiteSpace=wrap;html=1;" parent="1" vertex="1">
          <mxGeometry x="-475.5" y="-230" width="95" height="60" as="geometry" />
        </mxCell>
        <mxCell id="cpq9sIJFM1b6H--l-Clq-13" style="edgeStyle=orthogonalEdgeStyle;rounded=0;orthogonalLoop=1;jettySize=auto;html=1;exitX=1;exitY=0.5;exitDx=0;exitDy=0;entryX=1;entryY=0.5;entryDx=0;entryDy=0;" edge="1" parent="1" source="rIVqcfPACpTOlNHZVLb5-42" target="cpq9sIJFM1b6H--l-Clq-9">
          <mxGeometry relative="1" as="geometry">
            <Array as="points">
              <mxPoint x="-170" y="-260" />
              <mxPoint x="-170" y="145" />
            </Array>
          </mxGeometry>
        </mxCell>
        <mxCell id="rIVqcfPACpTOlNHZVLb5-42" value="Landing zones&lt;div&gt;Subscription&lt;br&gt;Store&lt;/div&gt;" style="rounded=0;whiteSpace=wrap;html=1;" parent="1" vertex="1">
          <mxGeometry x="-302.5" y="-290" width="95" height="60" as="geometry" />
        </mxCell>
        <mxCell id="cpq9sIJFM1b6H--l-Clq-12" style="edgeStyle=orthogonalEdgeStyle;rounded=0;orthogonalLoop=1;jettySize=auto;html=1;exitX=1;exitY=0.5;exitDx=0;exitDy=0;entryX=1;entryY=0.5;entryDx=0;entryDy=0;" edge="1" parent="1" source="rIVqcfPACpTOlNHZVLb5-43" target="rIVqcfPACpTOlNHZVLb5-54">
          <mxGeometry relative="1" as="geometry" />
        </mxCell>
        <mxCell id="rIVqcfPACpTOlNHZVLb5-43" value="Landing zones&lt;div&gt;Subscription&lt;br&gt;BusinessApps&lt;/div&gt;" style="rounded=0;whiteSpace=wrap;html=1;" parent="1" vertex="1">
          <mxGeometry x="-302.5" y="-220" width="95" height="60" as="geometry" />
        </mxCell>
        <mxCell id="cpq9sIJFM1b6H--l-Clq-19" style="edgeStyle=orthogonalEdgeStyle;rounded=0;orthogonalLoop=1;jettySize=auto;html=1;exitX=0.5;exitY=1;exitDx=0;exitDy=0;entryX=0.25;entryY=0;entryDx=0;entryDy=0;" edge="1" parent="1" source="rIVqcfPACpTOlNHZVLb5-44" target="rIVqcfPACpTOlNHZVLb5-68">
          <mxGeometry relative="1" as="geometry" />
        </mxCell>
        <mxCell id="rIVqcfPACpTOlNHZVLb5-44" value="Sandbox&lt;br&gt;Subscription" style="rounded=0;whiteSpace=wrap;html=1;" parent="1" vertex="1">
          <mxGeometry x="-77" y="-230" width="95" height="60" as="geometry" />
        </mxCell>
        <mxCell id="rIVqcfPACpTOlNHZVLb5-33" value="&amp;nbsp;Landing Zones" style="rounded=1;whiteSpace=wrap;html=1;" parent="1" vertex="1">
          <mxGeometry x="-367.5" y="-440" width="160" height="40" as="geometry" />
        </mxCell>
        <mxCell id="rIVqcfPACpTOlNHZVLb5-32" value="&amp;nbsp;Platform" style="rounded=1;whiteSpace=wrap;html=1;" parent="1" vertex="1">
          <mxGeometry x="-607.5" y="-440" width="160" height="40" as="geometry" />
        </mxCell>
        <mxCell id="rIVqcfPACpTOlNHZVLb5-34" value="Sandbox" style="rounded=1;whiteSpace=wrap;html=1;" parent="1" vertex="1">
          <mxGeometry x="-109.5" y="-440" width="160" height="40" as="geometry" />
        </mxCell>
        <mxCell id="rIVqcfPACpTOlNHZVLb5-54" value="" style="rounded=0;whiteSpace=wrap;html=1;fillColor=#E2E6EB;strokeColor=none;" parent="1" vertex="1">
          <mxGeometry x="-607.5" y="-30" width="400" height="110" as="geometry" />
        </mxCell>
        <mxCell id="cpq9sIJFM1b6H--l-Clq-6" style="edgeStyle=orthogonalEdgeStyle;rounded=0;orthogonalLoop=1;jettySize=auto;html=1;exitX=1;exitY=0.5;exitDx=0;exitDy=0;entryX=0;entryY=0.5;entryDx=0;entryDy=0;" edge="1" parent="1" source="rIVqcfPACpTOlNHZVLb5-58" target="rIVqcfPACpTOlNHZVLb5-54">
          <mxGeometry relative="1" as="geometry" />
        </mxCell>
        <mxCell id="cpq9sIJFM1b6H--l-Clq-7" style="edgeStyle=orthogonalEdgeStyle;rounded=0;orthogonalLoop=1;jettySize=auto;html=1;exitX=0.5;exitY=0;exitDx=0;exitDy=0;entryX=0.75;entryY=1;entryDx=0;entryDy=0;" edge="1" parent="1" source="rIVqcfPACpTOlNHZVLb5-58" target="rIVqcfPACpTOlNHZVLb5-59">
          <mxGeometry relative="1" as="geometry" />
        </mxCell>
        <mxCell id="cpq9sIJFM1b6H--l-Clq-11" style="edgeStyle=orthogonalEdgeStyle;rounded=0;orthogonalLoop=1;jettySize=auto;html=1;exitX=1;exitY=0.5;exitDx=0;exitDy=0;entryX=0;entryY=0.5;entryDx=0;entryDy=0;" edge="1" parent="1" source="rIVqcfPACpTOlNHZVLb5-58" target="cpq9sIJFM1b6H--l-Clq-9">
          <mxGeometry relative="1" as="geometry" />
        </mxCell>
        <mxCell id="cpq9sIJFM1b6H--l-Clq-14" style="edgeStyle=orthogonalEdgeStyle;rounded=0;orthogonalLoop=1;jettySize=auto;html=1;exitX=0.75;exitY=0;exitDx=0;exitDy=0;entryX=0.5;entryY=0;entryDx=0;entryDy=0;" edge="1" parent="1" source="rIVqcfPACpTOlNHZVLb5-58" target="rIVqcfPACpTOlNHZVLb5-68">
          <mxGeometry relative="1" as="geometry" />
        </mxCell>
        <mxCell id="rIVqcfPACpTOlNHZVLb5-63" value="" style="rounded=0;whiteSpace=wrap;html=1;fillColor=#E2E6EB;strokeColor=none;" parent="1" vertex="1">
          <mxGeometry x="-1140" y="-540" width="325" height="200" as="geometry" />
        </mxCell>
        <mxCell id="rIVqcfPACpTOlNHZVLb5-39" value="&amp;nbsp;Identify&lt;br&gt;Subscription" style="rounded=0;whiteSpace=wrap;html=1;" parent="1" vertex="1">
          <mxGeometry x="-575.5" y="-230" width="95" height="60" as="geometry" />
        </mxCell>
        <mxCell id="cpq9sIJFM1b6H--l-Clq-5" style="edgeStyle=orthogonalEdgeStyle;rounded=0;orthogonalLoop=1;jettySize=auto;html=1;exitX=1;exitY=0.75;exitDx=0;exitDy=0;entryX=0.5;entryY=1;entryDx=0;entryDy=0;" edge="1" parent="1" source="rIVqcfPACpTOlNHZVLb5-59" target="rIVqcfPACpTOlNHZVLb5-39">
          <mxGeometry relative="1" as="geometry" />
        </mxCell>
        <mxCell id="rIVqcfPACpTOlNHZVLb5-68" value="" style="rounded=0;whiteSpace=wrap;html=1;fillColor=#E2E6EB;strokeColor=none;" parent="1" vertex="1">
          <mxGeometry x="-145.5" y="-30" width="385.5" height="230" as="geometry" />
        </mxCell>
        <mxCell id="rIVqcfPACpTOlNHZVLb5-70" value="&lt;span style=&quot;text-wrap-mode: wrap;&quot;&gt;&amp;nbsp;Management&amp;nbsp;&lt;/span&gt;&lt;span style=&quot;text-wrap-mode: wrap;&quot;&gt;Subscription&lt;/span&gt;" style="text;html=1;align=left;verticalAlign=middle;resizable=0;points=[];autosize=1;strokeColor=none;fillColor=none;" parent="1" vertex="1">
          <mxGeometry x="-1132.5" y="-540" width="170" height="30" as="geometry" />
        </mxCell>
        <mxCell id="rIVqcfPACpTOlNHZVLb5-71" value="&lt;span style=&quot;text-wrap-mode: wrap;&quot;&gt;&amp;nbsp;Identify&amp;nbsp;&lt;/span&gt;&lt;span style=&quot;text-wrap-mode: wrap;&quot;&gt;Subscription&lt;/span&gt;" style="text;html=1;align=left;verticalAlign=middle;resizable=0;points=[];autosize=1;strokeColor=none;fillColor=none;" parent="1" vertex="1">
          <mxGeometry x="-1132.5" y="-300" width="130" height="30" as="geometry" />
        </mxCell>
        <mxCell id="rIVqcfPACpTOlNHZVLb5-72" value="&lt;span style=&quot;text-wrap-mode: wrap;&quot;&gt;Connectivity&amp;nbsp;&lt;/span&gt;&lt;span style=&quot;text-wrap-mode: wrap;&quot;&gt;Subscription&lt;/span&gt;" style="text;html=1;align=left;verticalAlign=middle;resizable=0;points=[];autosize=1;strokeColor=none;fillColor=none;" parent="1" vertex="1">
          <mxGeometry x="-1132.5" y="-30" width="160" height="30" as="geometry" />
        </mxCell>
        <mxCell id="cpq9sIJFM1b6H--l-Clq-9" value="" style="rounded=0;whiteSpace=wrap;html=1;fillColor=#E2E6EB;strokeColor=none;" vertex="1" parent="1">
          <mxGeometry x="-607.5" y="90" width="400" height="110" as="geometry" />
        </mxCell>
        <mxCell id="cpq9sIJFM1b6H--l-Clq-17" value="LZ Subscription BizApp" style="text;html=1;align=center;verticalAlign=middle;resizable=0;points=[];autosize=1;strokeColor=none;fillColor=none;" vertex="1" parent="1">
          <mxGeometry x="-607.5" y="-30" width="150" height="30" as="geometry" />
        </mxCell>
        <mxCell id="cpq9sIJFM1b6H--l-Clq-18" value="LZ Subscription Store" style="text;html=1;align=center;verticalAlign=middle;resizable=0;points=[];autosize=1;strokeColor=none;fillColor=none;" vertex="1" parent="1">
          <mxGeometry x="-608.5" y="90" width="140" height="30" as="geometry" />
        </mxCell>
        <mxCell id="cpq9sIJFM1b6H--l-Clq-20" value="Sandbox Subscription" style="text;html=1;align=center;verticalAlign=middle;resizable=0;points=[];autosize=1;strokeColor=none;fillColor=none;" vertex="1" parent="1">
          <mxGeometry x="-145.5" y="-30" width="140" height="30" as="geometry" />
        </mxCell>
        <mxCell id="cpq9sIJFM1b6H--l-Clq-21" value="" style="verticalLabelPosition=bottom;html=1;verticalAlign=top;align=center;strokeColor=none;fillColor=#00BEF2;shape=mxgraph.azure.virtual_network;pointerEvents=1;" vertex="1" parent="1">
          <mxGeometry x="-1106.25" y="-253.75" width="50" height="27.500000000000004" as="geometry" />
        </mxCell>
        <mxCell id="cpq9sIJFM1b6H--l-Clq-23" value="DNS" style="text;html=1;align=center;verticalAlign=middle;resizable=0;points=[];autosize=1;strokeColor=none;fillColor=none;" vertex="1" parent="1">
          <mxGeometry x="-1026.25" y="-253.75" width="50" height="30" as="geometry" />
        </mxCell>
        <mxCell id="cpq9sIJFM1b6H--l-Clq-24" value="NSGs" style="text;html=1;align=center;verticalAlign=middle;resizable=0;points=[];autosize=1;strokeColor=none;fillColor=none;" vertex="1" parent="1">
          <mxGeometry x="-936.25" y="-255" width="60" height="30" as="geometry" />
        </mxCell>
        <mxCell id="cpq9sIJFM1b6H--l-Clq-25" value="VNet n" style="text;html=1;align=center;verticalAlign=middle;resizable=0;points=[];autosize=1;strokeColor=none;fillColor=none;" vertex="1" parent="1">
          <mxGeometry x="-1111.25" y="-220" width="60" height="30" as="geometry" />
        </mxCell>
        <mxCell id="cpq9sIJFM1b6H--l-Clq-26" value="Entra ID&lt;div&gt;DS&lt;/div&gt;" style="image;aspect=fixed;html=1;points=[];align=center;fontSize=12;image=img/lib/azure2/identity/Entra_Domain_Services.svg;labelBackgroundColor=none;" vertex="1" parent="1">
          <mxGeometry x="-983.25" y="-170" width="40" height="40" as="geometry" />
        </mxCell>
        <mxCell id="cpq9sIJFM1b6H--l-Clq-27" value="RG" style="image;aspect=fixed;html=1;points=[];align=center;fontSize=12;image=img/lib/azure2/general/Resource_Groups.svg;" vertex="1" parent="1">
          <mxGeometry x="-1025.75" y="-210" width="42.5" height="40" as="geometry" />
        </mxCell>
        <mxCell id="cpq9sIJFM1b6H--l-Clq-28" value="&lt;span&gt;Recovery Service&lt;/span&gt;&lt;div&gt;&lt;span&gt;Vaults&lt;/span&gt;&lt;/div&gt;" style="image;aspect=fixed;html=1;points=[];align=center;fontSize=12;image=img/lib/azure2/storage/Recovery_Services_Vaults.svg;labelBackgroundColor=none;" vertex="1" parent="1">
          <mxGeometry x="-882.25" y="-200" width="46" height="40" as="geometry" />
        </mxCell>
        <mxCell id="cpq9sIJFM1b6H--l-Clq-30" value="Cost&amp;nbsp;&lt;div&gt;Management&lt;/div&gt;" style="image;aspect=fixed;html=1;points=[];align=center;fontSize=12;image=img/lib/azure2/general/Cost_Management.svg;" vertex="1" parent="1">
          <mxGeometry x="153.16999999999996" y="-490" width="44.67" height="40" as="geometry" />
        </mxCell>
        <mxCell id="cpq9sIJFM1b6H--l-Clq-32" value="Network&lt;div&gt;Watcher&lt;/div&gt;" style="image;aspect=fixed;html=1;points=[];align=center;fontSize=12;image=img/lib/azure2/networking/Network_Watcher.svg;" vertex="1" parent="1">
          <mxGeometry x="158.91999999999996" y="-340" width="40" height="40" as="geometry" />
        </mxCell>
        <mxCell id="cpq9sIJFM1b6H--l-Clq-35" value="Azure Update&lt;div&gt;Maneger&lt;/div&gt;" style="image;aspect=fixed;html=1;points=[];align=center;fontSize=12;image=img/lib/azure2/other/Update_Center.svg;" vertex="1" parent="1">
          <mxGeometry x="155" y="-186.25" width="47.84" height="47.84" as="geometry" />
        </mxCell>
        <mxCell id="cpq9sIJFM1b6H--l-Clq-36" value="Defender&lt;div&gt;for Cloud&lt;/div&gt;" style="image;aspect=fixed;html=1;points=[];align=center;fontSize=12;image=img/lib/azure2/security/Security_Center.svg;" vertex="1" parent="1">
          <mxGeometry x="164.9" y="-265" width="32.94" height="40" as="geometry" />
        </mxCell>
        <mxCell id="cpq9sIJFM1b6H--l-Clq-37" value="Role&lt;div&gt;assignment&lt;/div&gt;" style="image;aspect=fixed;html=1;points=[];align=center;fontSize=12;image=img/lib/azure2/intune/Azure_AD_Roles_and_Administrators.svg;" vertex="1" parent="1">
          <mxGeometry x="161.37" y="-420" width="40" height="40" as="geometry" />
        </mxCell>
        <mxCell id="cpq9sIJFM1b6H--l-Clq-41" value="" style="image;aspect=fixed;html=1;points=[];align=center;fontSize=12;image=img/lib/azure2/networking/DDoS_Protection_Plans.svg;" vertex="1" parent="1">
          <mxGeometry x="-1118.12" y="10" width="32.94" height="40" as="geometry" />
        </mxCell>
        <mxCell id="cpq9sIJFM1b6H--l-Clq-42" value="" style="image;aspect=fixed;html=1;points=[];align=center;fontSize=12;image=img/lib/azure2/networking/DNS_Zones.svg;" vertex="1" parent="1">
          <mxGeometry x="-707.5" y="-20" width="40" height="40" as="geometry" />
        </mxCell>
        <mxCell id="cpq9sIJFM1b6H--l-Clq-43" value="" style="image;aspect=fixed;html=1;points=[];align=center;fontSize=12;image=img/lib/azure2/networking/ExpressRoute_Circuits.svg;" vertex="1" parent="1">
          <mxGeometry x="-1118.12" y="65" width="43.75" height="40" as="geometry" />
        </mxCell>
        <mxCell id="cpq9sIJFM1b6H--l-Clq-44" value="" style="image;sketch=0;aspect=fixed;html=1;points=[];align=center;fontSize=12;image=img/lib/mscae/Azure_Firewall.svg;" vertex="1" parent="1">
          <mxGeometry x="-1118.12" y="130" width="40" height="40" as="geometry" />
        </mxCell>
        <mxCell id="cpq9sIJFM1b6H--l-Clq-46" value="" style="image;aspect=fixed;html=1;points=[];align=center;fontSize=12;image=img/lib/azure2/networking/Virtual_Network_Gateways.svg;" vertex="1" parent="1">
          <mxGeometry x="-891.3699999999999" y="55" width="37.68" height="50" as="geometry" />
        </mxCell>
        <mxCell id="cpq9sIJFM1b6H--l-Clq-47" value="DDOS" style="text;html=1;align=center;verticalAlign=middle;resizable=0;points=[];autosize=1;strokeColor=none;fillColor=none;" vertex="1" parent="1">
          <mxGeometry x="-1096.87" y="10" width="60" height="30" as="geometry" />
        </mxCell>
        <mxCell id="cpq9sIJFM1b6H--l-Clq-48" value="ExpRoute" style="text;html=1;align=center;verticalAlign=middle;resizable=0;points=[];autosize=1;strokeColor=none;fillColor=none;" vertex="1" parent="1">
          <mxGeometry x="-1096.87" y="65" width="80" height="30" as="geometry" />
        </mxCell>
        <mxCell id="cpq9sIJFM1b6H--l-Clq-49" value="Firewall" style="text;html=1;align=center;verticalAlign=middle;resizable=0;points=[];autosize=1;strokeColor=none;fillColor=none;" vertex="1" parent="1">
          <mxGeometry x="-1086.87" y="130" width="60" height="30" as="geometry" />
        </mxCell>
        <mxCell id="cpq9sIJFM1b6H--l-Clq-51" value="" style="image;aspect=fixed;html=1;points=[];align=center;fontSize=12;image=img/lib/azure2/networking/DNS_Private_Resolver.svg;" vertex="1" parent="1">
          <mxGeometry x="-975.75" y="45" width="34" height="30" as="geometry" />
        </mxCell>
        <mxCell id="cpq9sIJFM1b6H--l-Clq-52" value="" style="image;sketch=0;aspect=fixed;html=1;points=[];align=center;fontSize=12;image=img/lib/mscae/Azure_Firewall.svg;" vertex="1" parent="1">
          <mxGeometry x="-972.6199999999999" y="85" width="30" height="30" as="geometry" />
        </mxCell>
        <mxCell id="cpq9sIJFM1b6H--l-Clq-54" value="Hub VNet&lt;div&gt;Region n&lt;/div&gt;" style="text;html=1;align=center;verticalAlign=middle;resizable=0;points=[];autosize=1;strokeColor=none;fillColor=none;" vertex="1" parent="1">
          <mxGeometry x="-837" y="80" width="80" height="40" as="geometry" />
        </mxCell>
        <mxCell id="cpq9sIJFM1b6H--l-Clq-55" value="" style="verticalLabelPosition=bottom;html=1;verticalAlign=top;align=center;strokeColor=none;fillColor=#00BEF2;shape=mxgraph.azure.virtual_network;pointerEvents=1;" vertex="1" parent="1">
          <mxGeometry x="-800.75" y="46.25" width="50" height="27.500000000000004" as="geometry" />
        </mxCell>
        <mxCell id="cpq9sIJFM1b6H--l-Clq-63" value="" style="rounded=0;whiteSpace=wrap;html=1;fillColor=#f5f5f5;fontColor=#333333;strokeColor=none;" vertex="1" parent="1">
          <mxGeometry x="-595.75" y="-5" width="282.5" height="30" as="geometry" />
        </mxCell>
        <mxCell id="cpq9sIJFM1b6H--l-Clq-64" value="" style="verticalLabelPosition=bottom;html=1;verticalAlign=top;align=center;strokeColor=none;fillColor=#00BEF2;shape=mxgraph.azure.virtual_network;pointerEvents=1;" vertex="1" parent="1">
          <mxGeometry x="-583.25" y="-3.75" width="50" height="27.500000000000004" as="geometry" />
        </mxCell>
        <mxCell id="cpq9sIJFM1b6H--l-Clq-65" value="DNS" style="text;html=1;align=center;verticalAlign=middle;resizable=0;points=[];autosize=1;strokeColor=none;fillColor=none;" vertex="1" parent="1">
          <mxGeometry x="-503.25" y="-3.75" width="50" height="30" as="geometry" />
        </mxCell>
        <mxCell id="cpq9sIJFM1b6H--l-Clq-66" value="NSGs" style="text;html=1;align=center;verticalAlign=middle;resizable=0;points=[];autosize=1;strokeColor=none;fillColor=none;" vertex="1" parent="1">
          <mxGeometry x="-413.25" y="-5" width="60" height="30" as="geometry" />
        </mxCell>
        <mxCell id="cpq9sIJFM1b6H--l-Clq-67" value="VNet n" style="text;html=1;align=center;verticalAlign=middle;resizable=0;points=[];autosize=1;strokeColor=none;fillColor=none;" vertex="1" parent="1">
          <mxGeometry x="-313.25" y="-5" width="60" height="30" as="geometry" />
        </mxCell>
        <mxCell id="cpq9sIJFM1b6H--l-Clq-68" value="AKS" style="image;aspect=fixed;html=1;points=[];align=center;fontSize=12;image=img/lib/azure2/other/AKS_Automatic.svg;" vertex="1" parent="1">
          <mxGeometry x="-490" y="26.25" width="30" height="30" as="geometry" />
        </mxCell>
        <mxCell id="cpq9sIJFM1b6H--l-Clq-69" value="Function App" style="image;aspect=fixed;html=1;points=[];align=center;fontSize=12;image=img/lib/azure2/compute/Function_Apps.svg;" vertex="1" parent="1">
          <mxGeometry x="-385.75" y="26.25" width="34" height="30" as="geometry" />
        </mxCell>
        <mxCell id="cpq9sIJFM1b6H--l-Clq-70" value="DB" style="image;sketch=0;aspect=fixed;html=1;points=[];align=center;fontSize=12;image=img/lib/mscae/CosmosDB.svg;" vertex="1" parent="1">
          <mxGeometry x="-436.75" y="26.25" width="30" height="30" as="geometry" />
        </mxCell>
        <mxCell id="cpq9sIJFM1b6H--l-Clq-71" value="Shared" style="image;aspect=fixed;html=1;points=[];align=center;fontSize=12;image=img/lib/azure2/compute/Shared_Image_Galleries.svg;" vertex="1" parent="1">
          <mxGeometry x="-324.25" y="26.25" width="30" height="30" as="geometry" />
        </mxCell>
        <mxCell id="cpq9sIJFM1b6H--l-Clq-72" value="AKS" style="image;aspect=fixed;html=1;points=[];align=center;fontSize=12;image=img/lib/azure2/other/AKS_Automatic.svg;" vertex="1" parent="1">
          <mxGeometry x="-481.13" y="140" width="30" height="30" as="geometry" />
        </mxCell>
        <mxCell id="cpq9sIJFM1b6H--l-Clq-73" value="Function App" style="image;aspect=fixed;html=1;points=[];align=center;fontSize=12;image=img/lib/azure2/compute/Function_Apps.svg;" vertex="1" parent="1">
          <mxGeometry x="-376.88" y="140" width="34" height="30" as="geometry" />
        </mxCell>
        <mxCell id="cpq9sIJFM1b6H--l-Clq-74" value="DB" style="image;sketch=0;aspect=fixed;html=1;points=[];align=center;fontSize=12;image=img/lib/mscae/CosmosDB.svg;" vertex="1" parent="1">
          <mxGeometry x="-427.88" y="140" width="30" height="30" as="geometry" />
        </mxCell>
        <mxCell id="cpq9sIJFM1b6H--l-Clq-75" value="Shared" style="image;aspect=fixed;html=1;points=[];align=center;fontSize=12;image=img/lib/azure2/compute/Shared_Image_Galleries.svg;" vertex="1" parent="1">
          <mxGeometry x="-315.38" y="140" width="30" height="30" as="geometry" />
        </mxCell>
        <mxCell id="cpq9sIJFM1b6H--l-Clq-76" value="" style="rounded=0;whiteSpace=wrap;html=1;fillColor=#f5f5f5;fontColor=#333333;strokeColor=none;" vertex="1" parent="1">
          <mxGeometry x="-595" y="110" width="282.5" height="30" as="geometry" />
        </mxCell>
        <mxCell id="cpq9sIJFM1b6H--l-Clq-77" value="" style="verticalLabelPosition=bottom;html=1;verticalAlign=top;align=center;strokeColor=none;fillColor=#00BEF2;shape=mxgraph.azure.virtual_network;pointerEvents=1;" vertex="1" parent="1">
          <mxGeometry x="-582.5" y="111.25" width="50" height="27.500000000000004" as="geometry" />
        </mxCell>
        <mxCell id="cpq9sIJFM1b6H--l-Clq-78" value="DNS" style="text;html=1;align=center;verticalAlign=middle;resizable=0;points=[];autosize=1;strokeColor=none;fillColor=none;" vertex="1" parent="1">
          <mxGeometry x="-502.5" y="111.25" width="50" height="30" as="geometry" />
        </mxCell>
        <mxCell id="cpq9sIJFM1b6H--l-Clq-79" value="NSGs" style="text;html=1;align=center;verticalAlign=middle;resizable=0;points=[];autosize=1;strokeColor=none;fillColor=none;" vertex="1" parent="1">
          <mxGeometry x="-412.5" y="110" width="60" height="30" as="geometry" />
        </mxCell>
        <mxCell id="cpq9sIJFM1b6H--l-Clq-80" value="VNet n" style="text;html=1;align=center;verticalAlign=middle;resizable=0;points=[];autosize=1;strokeColor=none;fillColor=none;" vertex="1" parent="1">
          <mxGeometry x="-312.5" y="110" width="60" height="30" as="geometry" />
        </mxCell>
        <mxCell id="cpq9sIJFM1b6H--l-Clq-81" value="" style="image;sketch=0;aspect=fixed;html=1;points=[];align=center;fontSize=12;image=img/lib/mscae/Azure_AD_Domain_Services.svg;" vertex="1" parent="1">
          <mxGeometry x="252.5" y="-340" width="50" height="50" as="geometry" />
        </mxCell>
        <mxCell id="cpq9sIJFM1b6H--l-Clq-82" value="VM" style="image;aspect=fixed;html=1;points=[];align=center;fontSize=12;image=img/lib/azure2/compute/Automanaged_VM.svg;" vertex="1" parent="1">
          <mxGeometry x="-540.4" y="141.25" width="32.9" height="30" as="geometry" />
        </mxCell>
        <mxCell id="cpq9sIJFM1b6H--l-Clq-83" value="VM" style="image;aspect=fixed;html=1;points=[];align=center;fontSize=12;image=img/lib/azure2/compute/Automanaged_VM.svg;" vertex="1" parent="1">
          <mxGeometry x="-543.9499999999999" y="25" width="32.9" height="30" as="geometry" />
        </mxCell>
        <mxCell id="cpq9sIJFM1b6H--l-Clq-84" value="" style="rounded=0;whiteSpace=wrap;html=1;fillColor=#f5f5f5;fontColor=#333333;strokeColor=none;" vertex="1" parent="1">
          <mxGeometry x="-133" width="282.5" height="30" as="geometry" />
        </mxCell>
        <mxCell id="cpq9sIJFM1b6H--l-Clq-85" value="" style="verticalLabelPosition=bottom;html=1;verticalAlign=top;align=center;strokeColor=none;fillColor=#00BEF2;shape=mxgraph.azure.virtual_network;pointerEvents=1;" vertex="1" parent="1">
          <mxGeometry x="-120.5" y="1.25" width="50" height="27.500000000000004" as="geometry" />
        </mxCell>
        <mxCell id="cpq9sIJFM1b6H--l-Clq-86" value="DNS" style="text;html=1;align=center;verticalAlign=middle;resizable=0;points=[];autosize=1;strokeColor=none;fillColor=none;" vertex="1" parent="1">
          <mxGeometry x="-40.5" y="1.25" width="50" height="30" as="geometry" />
        </mxCell>
        <mxCell id="cpq9sIJFM1b6H--l-Clq-87" value="NSGs" style="text;html=1;align=center;verticalAlign=middle;resizable=0;points=[];autosize=1;strokeColor=none;fillColor=none;" vertex="1" parent="1">
          <mxGeometry x="49.5" width="60" height="30" as="geometry" />
        </mxCell>
        <mxCell id="cpq9sIJFM1b6H--l-Clq-88" value="VNet n" style="text;html=1;align=center;verticalAlign=middle;resizable=0;points=[];autosize=1;strokeColor=none;fillColor=none;" vertex="1" parent="1">
          <mxGeometry x="149.5" width="60" height="30" as="geometry" />
        </mxCell>
        <mxCell id="cpq9sIJFM1b6H--l-Clq-89" value="AKS" style="image;aspect=fixed;html=1;points=[];align=center;fontSize=12;image=img/lib/azure2/other/AKS_Automatic.svg;" vertex="1" parent="1">
          <mxGeometry x="-27.25" y="31.25" width="30" height="30" as="geometry" />
        </mxCell>
        <mxCell id="cpq9sIJFM1b6H--l-Clq-90" value="Function App" style="image;aspect=fixed;html=1;points=[];align=center;fontSize=12;image=img/lib/azure2/compute/Function_Apps.svg;" vertex="1" parent="1">
          <mxGeometry x="77" y="31.25" width="34" height="30" as="geometry" />
        </mxCell>
        <mxCell id="cpq9sIJFM1b6H--l-Clq-91" value="DB" style="image;sketch=0;aspect=fixed;html=1;points=[];align=center;fontSize=12;image=img/lib/mscae/CosmosDB.svg;" vertex="1" parent="1">
          <mxGeometry x="26" y="31.25" width="30" height="30" as="geometry" />
        </mxCell>
        <mxCell id="cpq9sIJFM1b6H--l-Clq-93" value="Service pricinpal&lt;div&gt;Security Groups&lt;/div&gt;&lt;div&gt;Users&lt;/div&gt;" style="text;html=1;align=left;verticalAlign=middle;resizable=0;points=[];autosize=1;strokeColor=none;fillColor=none;" vertex="1" parent="1">
          <mxGeometry x="-342.5" y="-660" width="110" height="60" as="geometry" />
        </mxCell>
        <mxCell id="cpq9sIJFM1b6H--l-Clq-94" value="Enrollment Billing&lt;div&gt;Department/Billing&lt;/div&gt;&lt;div&gt;Account/Invoice&lt;/div&gt;" style="text;html=1;align=center;verticalAlign=middle;resizable=0;points=[];autosize=1;strokeColor=none;fillColor=none;" vertex="1" parent="1">
          <mxGeometry x="-667.5" y="-660" width="120" height="60" as="geometry" />
        </mxCell>
        <mxCell id="cpq9sIJFM1b6H--l-Clq-95" value="&lt;font style=&quot;font-size: 9px;&quot;&gt;Approval Workflow&lt;/font&gt;&lt;div&gt;&lt;font style=&quot;font-size: 9px;&quot;&gt;Notification&lt;/font&gt;&lt;/div&gt;&lt;div&gt;&lt;font style=&quot;font-size: 9px;&quot;&gt;MFA&lt;/font&gt;&lt;/div&gt;&lt;div&gt;&lt;font style=&quot;font-size: 9px;&quot;&gt;Access Audit/Review&lt;/font&gt;&lt;/div&gt;&lt;div&gt;&lt;font style=&quot;font-size: 9px;&quot;&gt;Report&lt;/font&gt;&lt;/div&gt;&lt;div&gt;&lt;font style=&quot;font-size: 9px;&quot;&gt;Privileged identity&lt;/font&gt;&lt;/div&gt;" style="text;html=1;align=left;verticalAlign=middle;resizable=0;points=[];autosize=1;strokeColor=none;fillColor=none;" vertex="1" parent="1">
          <mxGeometry x="-503.25" y="-677" width="110" height="100" as="geometry" />
        </mxCell>
        <mxCell id="cpq9sIJFM1b6H--l-Clq-97" value="" style="image;aspect=fixed;html=1;points=[];align=center;fontSize=12;image=img/lib/azure2/general/Dashboard.svg;" vertex="1" parent="1">
          <mxGeometry x="-1081.5" y="-460" width="56.67" height="40" as="geometry" />
        </mxCell>
        <mxCell id="cpq9sIJFM1b6H--l-Clq-98" value="" style="image;aspect=fixed;html=1;points=[];align=center;fontSize=12;image=img/lib/azure2/analytics/Log_Analytics_Workspaces.svg;" vertex="1" parent="1">
          <mxGeometry x="-922.2499999999999" y="-460" width="40" height="40" as="geometry" />
        </mxCell>
        <mxCell id="cpq9sIJFM1b6H--l-Clq-99" value="" style="endArrow=classic;html=1;rounded=0;" edge="1" parent="1">
          <mxGeometry width="50" height="50" relative="1" as="geometry">
            <mxPoint x="-1013.5" y="-440" as="sourcePoint" />
            <mxPoint x="-933.5" y="-440" as="targetPoint" />
          </mxGeometry>
        </mxCell>
        <mxCell id="cpq9sIJFM1b6H--l-Clq-100" value="Queries" style="text;html=1;align=center;verticalAlign=middle;resizable=0;points=[];autosize=1;strokeColor=none;fillColor=none;" vertex="1" parent="1">
          <mxGeometry x="-1012.25" y="-490" width="70" height="30" as="geometry" />
        </mxCell>
        <mxCell id="cpq9sIJFM1b6H--l-Clq-101" value="Alerting" style="text;html=1;align=center;verticalAlign=middle;resizable=0;points=[];autosize=1;strokeColor=none;fillColor=none;" vertex="1" parent="1">
          <mxGeometry x="-1005.5" y="-420" width="60" height="30" as="geometry" />
        </mxCell>
        <mxCell id="cpq9sIJFM1b6H--l-Clq-102" value="Change tracking" style="text;html=1;align=center;verticalAlign=middle;resizable=0;points=[];autosize=1;strokeColor=none;fillColor=none;" vertex="1" parent="1">
          <mxGeometry x="-1032.25" y="-440" width="110" height="30" as="geometry" />
        </mxCell>
        <mxCell id="cpq9sIJFM1b6H--l-Clq-103" value="Inventory" style="text;html=1;align=center;verticalAlign=middle;resizable=0;points=[];autosize=1;strokeColor=none;fillColor=none;" vertex="1" parent="1">
          <mxGeometry x="-1012.25" y="-470" width="70" height="30" as="geometry" />
        </mxCell>
      </root>
    </mxGraphModel>
  </diagram>
</mxfile>
